<!-- icon666.com - MILLIONS vector ICONS FREE --><svg id="Capa_1" enable-background="new 0 0 511.992 511.992" viewBox="0 0 511.992 511.992" xmlns="http://www.w3.org/2000/svg"><g><path d="m492.665 358.443v-180.13c0-23.602-19.134-42.736-42.736-42.736-23.602 0-42.736 19.133-42.736 42.736v44.218l-115.793-115.794c-14.467-14.467-37.923-14.467-52.391 0-14.467 14.467-14.467 37.923 0 52.391l-26.447-26.447c-14.467-14.467-37.924-14.467-52.391 0-14.467 14.467-14.467 37.924 0 52.391l15.312 15.312c-14.467-14.467-37.924-14.467-52.391 0-14.467 14.467-14.467 37.923 0 52.391l37.786 37.786c-14.468-14.467-37.924-14.467-52.391 0-14.467 14.467-14.467 37.923 0 52.391l116.643 116.643c59.878 59.878 156.96 59.878 216.838 0l15.027-15.028c23.781-23.781 35.671-54.949 35.671-86.117-.001-.003-.001-.005-.001-.007z" fill="#f6ee86"></path><path d="m166.318 296.001-5.441-5.441-13.47-8.596c-13.117-4.788-28.397-1.928-38.921 8.596-14.467 14.467-14.467 37.923 0 52.391 0 0 46.384 46.384 72.03 72.03-23.44-40.586-28.156-90.936-14.198-118.98z" fill="#eed076"></path><path d="m123.091 252.774 20.286 20.287c-3.636-11.26-12.521-56.494 3.135-83.414-8.536.637-16.894 4.209-23.422 10.737-14.466 14.466-14.466 37.923.001 52.39z" fill="#eed076"></path><path d="m313.151 67.514c21.079 4.313 37.959 20.621 43.003 41.544.971 4.029 5.025 6.504 9.049 5.533 4.026-.971 6.504-5.022 5.533-9.049-6.401-26.554-27.824-47.25-54.577-52.724-4.064-.83-8.021 1.787-8.852 5.844-.83 4.059 1.787 8.022 5.844 8.852zm4.155-52.664c45.269 9.263 81.518 44.283 92.349 89.216.972 4.032 5.027 6.504 9.049 5.534 4.026-.971 6.504-5.021 5.533-9.048-12.188-50.564-52.98-89.972-103.923-100.396-4.058-.833-8.021 1.785-8.852 5.844-.829 4.057 1.787 8.02 5.844 8.85zm-201.414 454.546c-44.935-10.831-79.953-47.081-89.216-92.349-.831-4.059-4.79-6.68-8.852-5.844-4.058.83-6.674 4.793-5.844 8.851 10.424 50.943 49.831 91.735 100.396 103.924 4.017.969 8.076-1.498 9.049-5.534.971-4.026-1.506-8.077-5.533-9.048zm334.037-341.319c-27.7 0-50.236 22.536-50.236 50.236v26.111l-102.99-102.991c-17.41-17.409-45.587-17.411-62.997 0-7.778 7.778-12.326 17.926-12.969 28.816l-2.873-2.872c-17.368-17.369-45.63-17.367-62.998 0-14.811 14.812-16.991 37.543-6.541 54.687-11.085.237-22.098 4.576-30.538 13.016-17.367 17.368-17.367 45.629 0 62.997l14.233 14.232c-10.505.623-20.828 4.939-28.838 12.948-17.367 17.368-17.367 45.629 0 62.997l108.061 108.061c2.93 2.929 7.678 2.929 10.607 0s2.929-7.678 0-10.607l-108.061-108.061c-11.52-11.52-11.52-30.265.001-41.785 11.546-11.547 30.236-11.548 41.783 0l55.265 55.265c2.929 2.929 7.677 2.929 10.607 0 2.929-2.929 2.929-7.678 0-10.607-.137-.137-91.642-91.642-93.051-93.051-11.52-11.52-11.52-30.264 0-41.784 11.508-11.507 30.225-11.521 41.748-.037l.028.028c5.891 5.891 79.595 79.595 83.783 83.784 2.93 2.929 7.678 2.929 10.607 0s2.929-7.678 0-10.607c-11.898-11.898-88.103-88.102-99.088-99.087-11.52-11.52-11.52-30.264-.001-41.784 11.52-11.519 30.265-11.521 41.785 0l98.244 98.244c2.93 2.929 7.678 2.929 10.607 0s2.929-7.678 0-10.606l-71.797-71.796c-11.52-11.52-11.52-30.265-.001-41.785 11.546-11.546 30.236-11.549 41.784 0l115.794 115.794c4.711 4.709 12.804 1.373 12.804-5.303v-44.218c0-19.429 15.807-35.236 35.236-35.236s35.235 15.807 35.235 35.236v11.64c0 4.142 3.357 7.5 7.5 7.5 4.142 0 7.5-3.358 7.5-7.5v-11.64c.003-27.699-22.532-50.235-50.233-50.235zm-68.629 133.112c-3.534-2.162-8.15-1.048-10.311 2.485-20.461 33.459-23.349 74.957-7.723 111.009 1.652 3.81 6.071 5.542 9.864 3.899 3.801-1.647 5.546-6.064 3.899-9.864-13.687-31.577-11.161-67.92 6.756-97.218 2.161-3.534 1.048-8.15-2.485-10.311zm111.365-42.988c-4.143 0-7.5 3.358-7.5 7.5v132.748c0 30.528-11.888 59.228-33.473 80.814l-15.029 15.028c-51.365 51.366-131.617 56.412-188.63 15.035-3.354-2.434-8.042-1.688-10.476 1.665-2.433 3.352-1.688 8.042 1.665 10.475 63.155 45.835 151.629 39.851 208.047-16.568l15.029-15.028c24.418-24.419 37.866-56.886 37.866-91.426v-132.743c.001-4.142-3.357-7.5-7.499-7.5zm-371.78 197.693c-20.924-5.043-37.231-21.923-41.544-43.003-.83-4.058-4.788-6.678-8.852-5.844-4.058.831-6.674 4.794-5.844 8.851 5.475 26.754 26.17 48.177 52.724 54.578 4.017.969 8.076-1.498 9.049-5.534.97-4.026-1.507-8.077-5.533-9.048z"></path></g></svg>